# MagicaVoxel @ Ephtracy

# group
o 

# material
mtllib CreamPie.mtl
usemtl palette

# normals
vn -1 0 0
vn 1 0 0
vn 0 0 1
vn 0 0 -1
vn 0 -1 0
vn 0 1 0

# texcoords
vt 0.00195312 0.5
vt 0.00585938 0.5
vt 0.00976562 0.5
vt 0.0136719 0.5
vt 0.0175781 0.5
vt 0.0214844 0.5
vt 0.0253906 0.5
vt 0.0292969 0.5
vt 0.0332031 0.5
vt 0.0371094 0.5
vt 0.0410156 0.5
vt 0.0449219 0.5
vt 0.0488281 0.5
vt 0.0527344 0.5
vt 0.0566406 0.5
vt 0.0605469 0.5
vt 0.0644531 0.5
vt 0.0683594 0.5

# verts
v -0.4 0 0.1
v -0.4 0 0
v -0.4 0 -0.1
v -0.4 0.1 0.1
v -0.4 0.1 0
v -0.4 0.1 -0.1
v -0.4 0.2 0.1
v -0.4 0.2 0
v -0.4 0.2 -0.1
v -0.3 0 0.3
v -0.3 0 0.1
v -0.3 0 -0.1
v -0.3 0 -0.2
v -0.3 0 -0.3
v -0.3 0.1 0.3
v -0.3 0.1 0.2
v -0.3 0.1 0.1
v -0.3 0.1 -0.1
v -0.3 0.1 -0.2
v -0.3 0.1 -0.3
v -0.3 0.2 0.3
v -0.3 0.2 0.2
v -0.3 0.2 0.1
v -0.3 0.2 -0.1
v -0.3 0.2 -0.2
v -0.3 0.2 -0.3
v -0.2 0.2 0.1
v -0.2 0.2 0
v -0.2 0.2 -0.1
v -0.2 0.3 0.1
v -0.2 0.3 0
v -0.2 0.3 -0.1
v -0.1 0 0.4
v -0.1 0 0.3
v -0.1 0 -0.3
v -0.1 0 -0.4
v -0.1 0.1 0.4
v -0.1 0.1 0.3
v -0.1 0.1 -0.3
v -0.1 0.1 -0.4
v -0.1 0.2 0.4
v -0.1 0.2 0.3
v -0.1 0.2 0.2
v -0.1 0.2 0.1
v -0.1 0.2 -0.1
v -0.1 0.2 -0.2
v -0.1 0.2 -0.3
v -0.1 0.2 -0.4
v -0.1 0.3 0.2
v -0.1 0.3 0.1
v -0.1 0.3 -0.1
v -0.1 0.3 -0.2
v 0 0.1 0.2
v 0 0.1 0.1
v 0 0.2 0.2
v 0 0.2 0.1
v -0.1 0.1 0.2
v -0.1 0.1 0.1
v -0.1 0.2 0.2
v -0.1 0.2 0.1
v 0.1 0 0.4
v 0.1 0 0.3
v 0.1 0 -0.3
v 0.1 0 -0.4
v 0.1 0.1 0.4
v 0.1 0.1 0.3
v 0.1 0.1 -0.3
v 0.1 0.1 -0.4
v 0.1 0.2 0.4
v 0.1 0.2 0.3
v 0.1 0.2 0.2
v 0.1 0.2 0.1
v 0.1 0.2 -0.1
v 0.1 0.2 -0.2
v 0.1 0.2 -0.3
v 0.1 0.2 -0.4
v 0.1 0.3 0.2
v 0.1 0.3 0.1
v 0.1 0.3 -0.1
v 0.1 0.3 -0.2
v 0.2 0.2 0.1
v 0.2 0.2 0
v 0.2 0.2 -0.1
v 0.2 0.3 0.1
v 0.2 0.3 0
v 0.2 0.3 -0.1
v 0.3 0 0.3
v 0.3 0 0.2
v 0.3 0 0.1
v 0.3 0 -0.1
v 0.3 0 -0.3
v 0.3 0.1 0.3
v 0.3 0.1 0.2
v 0.3 0.1 0.1
v 0.3 0.1 -0.1
v 0.3 0.1 -0.2
v 0.3 0.1 -0.3
v 0.3 0.2 0.3
v 0.3 0.2 0.2
v 0.3 0.2 0.1
v 0.3 0.2 -0.1
v 0.3 0.2 -0.2
v 0.3 0.2 -0.3
v 0.4 0 0.1
v 0.4 0 0
v 0.4 0 -0.1
v 0.4 0.1 0.1
v 0.4 0.1 0
v 0.4 0.1 -0.1
v 0.4 0.2 0.1
v 0.4 0.2 0
v 0.4 0.2 -0.1
v -0.1 0 0.4
v -0.1 0.1 0.4
v -0.1 0.2 0.4
v 0 0 0.4
v 0 0.1 0.4
v 0 0.2 0.4
v 0.1 0 0.4
v 0.1 0.1 0.4
v 0.1 0.2 0.4
v -0.3 0 0.3
v -0.3 0.1 0.3
v -0.3 0.2 0.3
v -0.2 0.1 0.3
v -0.2 0.2 0.3
v -0.1 0 0.3
v -0.1 0.1 0.3
v -0.1 0.2 0.3
v 0.1 0 0.3
v 0.1 0.1 0.3
v 0.1 0.2 0.3
v 0.2 0 0.3
v 0.2 0.1 0.3
v 0.2 0.2 0.3
v 0.3 0 0.3
v 0.3 0.1 0.3
v 0.3 0.2 0.3
v -0.1 0.2 0.2
v -0.1 0.3 0.2
v 0 0.2 0.2
v 0 0.3 0.2
v 0.1 0.2 0.2
v 0.1 0.3 0.2
v -0.4 0 0.1
v -0.4 0.1 0.1
v -0.4 0.2 0.1
v -0.3 0 0.1
v -0.3 0.1 0.1
v -0.3 0.2 0.1
v -0.2 0.2 0.1
v -0.2 0.3 0.1
v -0.1 0.1 0.1
v -0.1 0.2 0.1
v -0.1 0.3 0.1
v 0 0.1 0.1
v 0 0.2 0.1
v 0.1 0.2 0.1
v 0.1 0.3 0.1
v 0.2 0.2 0.1
v 0.2 0.3 0.1
v 0.3 0 0.1
v 0.3 0.1 0.1
v 0.3 0.2 0.1
v 0.4 0 0.1
v 0.4 0.1 0.1
v 0.4 0.2 0.1
v -0.1 0.1 0.2
v -0.1 0.2 0.2
v 0 0.1 0.2
v 0 0.2 0.2
v -0.4 0 -0.1
v -0.4 0.1 -0.1
v -0.4 0.2 -0.1
v -0.3 0 -0.1
v -0.3 0.1 -0.1
v -0.3 0.2 -0.1
v -0.2 0.2 -0.1
v -0.2 0.3 -0.1
v -0.1 0.2 -0.1
v -0.1 0.3 -0.1
v 0.1 0.2 -0.1
v 0.1 0.3 -0.1
v 0.2 0.2 -0.1
v 0.2 0.3 -0.1
v 0.3 0 -0.1
v 0.3 0.1 -0.1
v 0.3 0.2 -0.1
v 0.4 0 -0.1
v 0.4 0.1 -0.1
v 0.4 0.2 -0.1
v -0.1 0.2 -0.2
v -0.1 0.3 -0.2
v 0 0.2 -0.2
v 0.1 0.2 -0.2
v 0.1 0.3 -0.2
v -0.3 0 -0.3
v -0.3 0.1 -0.3
v -0.3 0.2 -0.3
v -0.2 0 -0.3
v -0.2 0.1 -0.3
v -0.2 0.2 -0.3
v -0.1 0 -0.3
v -0.1 0.1 -0.3
v -0.1 0.2 -0.3
v 0.1 0 -0.3
v 0.1 0.1 -0.3
v 0.1 0.2 -0.3
v 0.2 0.1 -0.3
v 0.2 0.2 -0.3
v 0.3 0 -0.3
v 0.3 0.1 -0.3
v 0.3 0.2 -0.3
v -0.1 0 -0.4
v -0.1 0.1 -0.4
v -0.1 0.2 -0.4
v 0 0 -0.4
v 0 0.1 -0.4
v 0 0.2 -0.4
v 0.1 0 -0.4
v 0.1 0.1 -0.4
v 0.1 0.2 -0.4
v -0.1 0 0.4
v 0 0 0.4
v 0.1 0 0.4
v -0.3 0 0.3
v -0.1 0 0.3
v 0 0 0.3
v 0.1 0 0.3
v 0.2 0 0.3
v 0.3 0 0.3
v -0.2 0 0.2
v -0.1 0 0.2
v 0.1 0 0.2
v 0.2 0 0.2
v 0.3 0 0.2
v -0.4 0 0.1
v -0.3 0 0.1
v -0.2 0 0.1
v -0.1 0 0.1
v 0 0 0.1
v 0.1 0 0.1
v 0.2 0 0.1
v 0.3 0 0.1
v 0.4 0 0.1
v -0.4 0 0
v -0.3 0 0
v -0.1 0 0
v 0 0 0
v 0.1 0 0
v 0.3 0 0
v 0.4 0 0
v -0.4 0 -0.1
v -0.3 0 -0.1
v -0.2 0 -0.1
v -0.1 0 -0.1
v 0 0 -0.1
v 0.1 0 -0.1
v 0.2 0 -0.1
v 0.3 0 -0.1
v 0.4 0 -0.1
v -0.3 0 -0.2
v -0.2 0 -0.2
v -0.1 0 -0.2
v 0.1 0 -0.2
v 0.2 0 -0.2
v -0.3 0 -0.3
v -0.2 0 -0.3
v -0.1 0 -0.3
v 0 0 -0.3
v 0.1 0 -0.3
v 0.3 0 -0.3
v -0.1 0 -0.4
v 0 0 -0.4
v 0.1 0 -0.4
v -0.1 0.2 0.2
v 0 0.2 0.2
v -0.1 0.2 0.1
v 0 0.2 0.1
v -0.1 0.1 0.2
v 0 0.1 0.2
v -0.1 0.1 0.1
v 0 0.1 0.1
v -0.1 0.2 0.4
v 0 0.2 0.4
v 0.1 0.2 0.4
v -0.3 0.2 0.3
v -0.2 0.2 0.3
v -0.1 0.2 0.3
v 0 0.2 0.3
v 0.1 0.2 0.3
v 0.2 0.2 0.3
v 0.3 0.2 0.3
v -0.3 0.2 0.2
v -0.2 0.2 0.2
v -0.1 0.2 0.2
v 0 0.2 0.2
v 0.1 0.2 0.2
v 0.2 0.2 0.2
v 0.3 0.2 0.2
v -0.4 0.2 0.1
v -0.3 0.2 0.1
v -0.2 0.2 0.1
v -0.1 0.2 0.1
v 0.1 0.2 0.1
v 0.2 0.2 0.1
v 0.3 0.2 0.1
v 0.4 0.2 0.1
v -0.4 0.2 0
v -0.3 0.2 0
v -0.2 0.2 0
v 0.2 0.2 0
v 0.3 0.2 0
v 0.4 0.2 0
v -0.4 0.2 -0.1
v -0.3 0.2 -0.1
v -0.2 0.2 -0.1
v -0.1 0.2 -0.1
v 0.1 0.2 -0.1
v 0.2 0.2 -0.1
v 0.3 0.2 -0.1
v 0.4 0.2 -0.1
v -0.3 0.2 -0.2
v -0.2 0.2 -0.2
v -0.1 0.2 -0.2
v 0 0.2 -0.2
v 0.1 0.2 -0.2
v 0.2 0.2 -0.2
v 0.3 0.2 -0.2
v -0.3 0.2 -0.3
v -0.2 0.2 -0.3
v -0.1 0.2 -0.3
v 0 0.2 -0.3
v 0.1 0.2 -0.3
v 0.2 0.2 -0.3
v 0.3 0.2 -0.3
v -0.1 0.2 -0.4
v 0 0.2 -0.4
v 0.1 0.2 -0.4
v -0.1 0.3 0.2
v 0 0.3 0.2
v 0.1 0.3 0.2
v -0.2 0.3 0.1
v -0.1 0.3 0.1
v 0 0.3 0.1
v 0.1 0.3 0.1
v 0.2 0.3 0.1
v -0.2 0.3 0
v -0.1 0.3 0
v 0 0.3 0
v 0.1 0.3 0
v 0.2 0.3 0
v -0.2 0.3 -0.1
v -0.1 0.3 -0.1
v 0.1 0.3 -0.1
v 0.2 0.3 -0.1
v -0.1 0.3 -0.2
v 0.1 0.3 -0.2

# faces
f 4/3/1 2/3/1 1/3/1
f 5/4/1 3/4/1 2/4/1
f 5/3/1 2/3/1 4/3/1
f 6/4/1 3/4/1 5/4/1
f 7/1/1 5/1/1 4/1/1
f 8/2/1 6/2/1 5/2/1
f 8/1/1 5/1/1 7/1/1
f 9/2/1 6/2/1 8/2/1
f 15/8/1 11/8/1 10/8/1
f 16/8/1 11/8/1 15/8/1
f 17/8/1 11/8/1 16/8/1
f 18/10/1 13/10/1 12/10/1
f 19/11/1 14/11/1 13/11/1
f 19/10/1 13/10/1 18/10/1
f 20/11/1 14/11/1 19/11/1
f 21/5/1 16/5/1 15/5/1
f 22/6/1 17/6/1 16/6/1
f 22/5/1 16/5/1 21/5/1
f 23/6/1 17/6/1 22/6/1
f 24/6/1 19/6/1 18/6/1
f 25/5/1 20/5/1 19/5/1
f 25/6/1 19/6/1 24/6/1
f 26/5/1 20/5/1 25/5/1
f 30/12/1 28/12/1 27/12/1
f 31/13/1 29/13/1 28/13/1
f 31/12/1 28/12/1 30/12/1
f 32/13/1 29/13/1 31/13/1
f 37/3/1 34/3/1 33/3/1
f 38/3/1 34/3/1 37/3/1
f 39/4/1 36/4/1 35/4/1
f 40/4/1 36/4/1 39/4/1
f 41/2/1 38/2/1 37/2/1
f 42/2/1 38/2/1 41/2/1
f 47/2/1 40/2/1 39/2/1
f 48/2/1 40/2/1 47/2/1
f 49/12/1 44/12/1 43/12/1
f 50/12/1 44/12/1 49/12/1
f 51/13/1 46/13/1 45/13/1
f 52/13/1 46/13/1 51/13/1
f 55/13/1 54/13/1 53/13/1
f 56/13/1 54/13/1 55/13/1
f 57/14/2 58/14/2 59/14/2
f 59/14/2 58/14/2 60/14/2
f 61/4/2 62/4/2 65/4/2
f 65/4/2 62/4/2 66/4/2
f 63/3/2 64/3/2 67/3/2
f 67/3/2 64/3/2 68/3/2
f 65/1/2 66/1/2 69/1/2
f 69/1/2 66/1/2 70/1/2
f 67/1/2 68/1/2 75/1/2
f 75/1/2 68/1/2 76/1/2
f 71/13/2 72/13/2 77/13/2
f 77/13/2 72/13/2 78/13/2
f 73/13/2 74/13/2 79/13/2
f 79/13/2 74/13/2 80/13/2
f 81/16/2 82/16/2 84/16/2
f 82/13/2 83/13/2 85/13/2
f 84/16/2 82/16/2 85/16/2
f 85/13/2 83/13/2 86/13/2
f 87/11/2 88/11/2 92/11/2
f 88/10/2 89/10/2 93/10/2
f 92/11/2 88/11/2 93/11/2
f 93/10/2 89/10/2 94/10/2
f 90/8/2 91/8/2 95/8/2
f 95/8/2 91/8/2 96/8/2
f 96/8/2 91/8/2 97/8/2
f 92/5/2 93/5/2 98/5/2
f 93/6/2 94/6/2 99/6/2
f 98/5/2 93/5/2 99/5/2
f 99/6/2 94/6/2 100/6/2
f 95/6/2 96/6/2 101/6/2
f 96/5/2 97/5/2 102/5/2
f 101/6/2 96/6/2 102/6/2
f 102/5/2 97/5/2 103/5/2
f 104/4/2 105/4/2 107/4/2
f 105/3/2 106/3/2 108/3/2
f 107/4/2 105/4/2 108/4/2
f 108/3/2 106/3/2 109/3/2
f 107/1/2 108/1/2 110/1/2
f 108/2/2 109/2/2 111/2/2
f 110/1/2 108/1/2 111/1/2
f 111/2/2 109/2/2 112/2/2
f 116/3/3 114/3/3 113/3/3
f 117/2/3 115/2/3 114/2/3
f 117/3/3 114/3/3 116/3/3
f 118/2/3 115/2/3 117/2/3
f 119/4/3 117/4/3 116/4/3
f 120/1/3 118/1/3 117/1/3
f 120/4/3 117/4/3 119/4/3
f 121/1/3 118/1/3 120/1/3
f 125/8/3 123/8/3 122/8/3
f 125/5/3 124/5/3 123/5/3
f 126/5/3 124/5/3 125/5/3
f 127/8/3 125/8/3 122/8/3
f 128/6/3 126/6/3 125/6/3
f 128/8/3 125/8/3 127/8/3
f 129/6/3 126/6/3 128/6/3
f 133/10/3 131/10/3 130/10/3
f 134/6/3 132/6/3 131/6/3
f 134/10/3 131/10/3 133/10/3
f 135/6/3 132/6/3 134/6/3
f 136/11/3 134/11/3 133/11/3
f 137/5/3 135/5/3 134/5/3
f 137/11/3 134/11/3 136/11/3
f 138/5/3 135/5/3 137/5/3
f 141/12/3 140/12/3 139/12/3
f 142/12/3 140/12/3 141/12/3
f 143/13/3 142/13/3 141/13/3
f 144/13/3 142/13/3 143/13/3
f 148/3/3 146/3/3 145/3/3
f 149/1/3 147/1/3 146/1/3
f 149/3/3 146/3/3 148/3/3
f 150/1/3 147/1/3 149/1/3
f 154/12/3 152/12/3 151/12/3
f 155/12/3 152/12/3 154/12/3
f 156/13/3 154/13/3 153/13/3
f 157/13/3 154/13/3 156/13/3
f 160/16/3 159/16/3 158/16/3
f 161/16/3 159/16/3 160/16/3
f 165/4/3 163/4/3 162/4/3
f 166/1/3 164/1/3 163/1/3
f 166/4/3 163/4/3 165/4/3
f 167/1/3 164/1/3 166/1/3
f 168/13/4 169/13/4 170/13/4
f 170/13/4 169/13/4 171/13/4
f 172/4/4 173/4/4 175/4/4
f 173/2/4 174/2/4 176/2/4
f 175/4/4 173/4/4 176/4/4
f 176/2/4 174/2/4 177/2/4
f 178/13/4 179/13/4 180/13/4
f 180/13/4 179/13/4 181/13/4
f 182/13/4 183/13/4 184/13/4
f 184/13/4 183/13/4 185/13/4
f 186/3/4 187/3/4 189/3/4
f 187/2/4 188/2/4 190/2/4
f 189/3/4 187/3/4 190/3/4
f 190/2/4 188/2/4 191/2/4
f 192/13/4 193/13/4 194/13/4
f 194/13/4 193/13/4 195/13/4
f 195/13/4 193/13/4 196/13/4
f 197/11/4 198/11/4 200/11/4
f 198/5/4 199/5/4 201/5/4
f 200/11/4 198/11/4 201/11/4
f 201/5/4 199/5/4 202/5/4
f 200/10/4 201/10/4 203/10/4
f 201/6/4 202/6/4 204/6/4
f 203/10/4 201/10/4 204/10/4
f 204/6/4 202/6/4 205/6/4
f 206/8/4 207/8/4 209/8/4
f 207/6/4 208/6/4 209/6/4
f 209/6/4 208/6/4 210/6/4
f 206/8/4 209/8/4 211/8/4
f 209/5/4 210/5/4 212/5/4
f 211/8/4 209/8/4 212/8/4
f 212/5/4 210/5/4 213/5/4
f 214/4/4 215/4/4 217/4/4
f 215/2/4 216/2/4 218/2/4
f 217/4/4 215/4/4 218/4/4
f 218/2/4 216/2/4 219/2/4
f 217/3/4 218/3/4 220/3/4
f 218/1/4 219/1/4 221/1/4
f 220/3/4 218/3/4 221/3/4
f 221/1/4 219/1/4 222/1/4
f 227/3/5 224/3/5 223/3/5
f 228/4/5 225/4/5 224/4/5
f 228/3/5 224/3/5 227/3/5
f 229/4/5 225/4/5 228/4/5
f 232/8/5 227/8/5 226/8/5
f 233/9/5 228/9/5 227/9/5
f 233/8/5 227/8/5 232/8/5
f 233/9/5 229/9/5 228/9/5
f 234/10/5 230/10/5 229/10/5
f 234/9/5 229/9/5 233/9/5
f 235/11/5 231/11/5 230/11/5
f 235/10/5 230/10/5 234/10/5
f 236/11/5 231/11/5 235/11/5
f 238/8/5 232/8/5 226/8/5
f 239/9/5 233/9/5 232/9/5
f 239/8/5 232/8/5 238/8/5
f 240/15/5 234/15/5 233/15/5
f 240/9/5 233/9/5 239/9/5
f 241/15/5 234/15/5 240/15/5
f 242/9/5 235/9/5 234/9/5
f 242/15/5 234/15/5 241/15/5
f 243/10/5 236/10/5 235/10/5
f 243/9/5 235/9/5 242/9/5
f 244/10/5 236/10/5 243/10/5
f 246/3/5 238/3/5 237/3/5
f 247/9/5 239/9/5 238/9/5
f 247/3/5 238/3/5 246/3/5
f 248/8/5 241/8/5 240/8/5
f 248/15/5 240/15/5 239/15/5
f 249/3/5 242/3/5 241/3/5
f 249/8/5 241/8/5 248/8/5
f 250/15/5 243/15/5 242/15/5
f 250/3/5 242/3/5 249/3/5
f 251/9/5 244/9/5 243/9/5
f 251/4/5 245/4/5 244/4/5
f 252/4/5 245/4/5 251/4/5
f 253/4/5 247/4/5 246/4/5
f 254/9/5 239/9/5 247/9/5
f 254/4/5 247/4/5 253/4/5
f 255/15/5 248/15/5 239/15/5
f 255/9/5 239/9/5 254/9/5
f 256/3/5 249/3/5 248/3/5
f 256/15/5 248/15/5 255/15/5
f 257/8/5 250/8/5 249/8/5
f 257/3/5 249/3/5 256/3/5
f 258/15/5 243/15/5 250/15/5
f 258/8/5 250/8/5 257/8/5
f 259/9/5 251/9/5 243/9/5
f 259/15/5 243/15/5 258/15/5
f 260/3/5 252/3/5 251/3/5
f 260/9/5 251/9/5 259/9/5
f 261/3/5 252/3/5 260/3/5
f 262/10/5 255/10/5 254/10/5
f 263/9/5 256/9/5 255/9/5
f 263/10/5 255/10/5 262/10/5
f 264/15/5 257/15/5 256/15/5
f 264/9/5 256/9/5 263/9/5
f 264/15/5 258/15/5 257/15/5
f 265/9/5 259/9/5 258/9/5
f 265/15/5 258/15/5 264/15/5
f 266/8/5 260/8/5 259/8/5
f 266/9/5 259/9/5 265/9/5
f 267/11/5 263/11/5 262/11/5
f 268/10/5 264/10/5 263/10/5
f 268/11/5 263/11/5 267/11/5
f 269/9/5 265/9/5 264/9/5
f 269/10/5 264/10/5 268/10/5
f 270/9/5 265/9/5 269/9/5
f 271/8/5 266/8/5 265/8/5
f 271/9/5 265/9/5 270/9/5
f 272/8/5 260/8/5 266/8/5
f 272/8/5 266/8/5 271/8/5
f 273/4/5 270/4/5 269/4/5
f 274/3/5 271/3/5 270/3/5
f 274/4/5 270/4/5 273/4/5
f 275/3/5 271/3/5 274/3/5
f 278/12/5 277/12/5 276/12/5
f 279/12/5 277/12/5 278/12/5
f 280/15/6 281/15/6 282/15/6
f 282/15/6 281/15/6 283/15/6
f 284/2/6 285/2/6 289/2/6
f 285/1/6 286/1/6 290/1/6
f 289/2/6 285/2/6 290/2/6
f 290/1/6 286/1/6 291/1/6
f 287/5/6 288/5/6 294/5/6
f 288/6/6 289/6/6 295/6/6
f 294/5/6 288/5/6 295/5/6
f 289/13/6 290/13/6 296/13/6
f 295/6/6 289/6/6 296/6/6
f 290/14/6 291/14/6 297/14/6
f 296/13/6 290/13/6 297/13/6
f 291/6/6 292/6/6 298/6/6
f 297/14/6 291/14/6 298/14/6
f 292/5/6 293/5/6 299/5/6
f 298/6/6 292/6/6 299/6/6
f 299/5/6 293/5/6 300/5/6
f 294/6/6 295/6/6 302/6/6
f 295/14/6 296/14/6 303/14/6
f 302/6/6 295/6/6 303/6/6
f 303/14/6 296/14/6 304/14/6
f 298/16/6 299/16/6 305/16/6
f 299/6/6 300/6/6 306/6/6
f 305/16/6 299/16/6 306/16/6
f 306/6/6 300/6/6 307/6/6
f 301/1/6 302/1/6 309/1/6
f 302/7/6 303/7/6 310/7/6
f 309/1/6 302/1/6 310/1/6
f 310/7/6 303/7/6 311/7/6
f 306/18/6 307/18/6 312/18/6
f 307/1/6 308/1/6 313/1/6
f 312/18/6 307/18/6 313/18/6
f 313/1/6 308/1/6 314/1/6
f 309/2/6 310/2/6 315/2/6
f 310/7/6 311/7/6 316/7/6
f 315/2/6 310/2/6 316/2/6
f 316/7/6 311/7/6 317/7/6
f 312/7/6 313/7/6 320/7/6
f 313/2/6 314/2/6 321/2/6
f 320/7/6 313/7/6 321/7/6
f 321/2/6 314/2/6 322/2/6
f 316/6/6 317/6/6 323/6/6
f 317/7/6 318/7/6 324/7/6
f 323/6/6 317/6/6 324/6/6
f 324/7/6 318/7/6 325/7/6
f 319/7/6 320/7/6 327/7/6
f 320/6/6 321/6/6 328/6/6
f 327/7/6 320/7/6 328/7/6
f 328/6/6 321/6/6 329/6/6
f 323/5/6 324/5/6 330/5/6
f 324/6/6 325/6/6 331/6/6
f 330/5/6 324/5/6 331/5/6
f 325/13/6 326/13/6 332/13/6
f 331/6/6 325/6/6 332/6/6
f 326/7/6 327/7/6 333/7/6
f 332/13/6 326/13/6 333/13/6
f 327/6/6 328/6/6 334/6/6
f 333/7/6 327/7/6 334/7/6
f 328/5/6 329/5/6 335/5/6
f 334/6/6 328/6/6 335/6/6
f 335/5/6 329/5/6 336/5/6
f 332/2/6 333/2/6 337/2/6
f 333/1/6 334/1/6 338/1/6
f 337/2/6 333/2/6 338/2/6
f 338/1/6 334/1/6 339/1/6
f 340/12/6 341/12/6 344/12/6
f 341/13/6 342/13/6 345/13/6
f 344/12/6 341/12/6 345/12/6
f 345/13/6 342/13/6 346/13/6
f 343/12/6 344/12/6 348/12/6
f 344/13/6 345/13/6 349/13/6
f 348/12/6 344/12/6 349/12/6
f 345/17/6 346/17/6 350/17/6
f 349/13/6 345/13/6 350/13/6
f 346/16/6 347/16/6 351/16/6
f 350/17/6 346/17/6 351/17/6
f 351/16/6 347/16/6 352/16/6
f 348/13/6 349/13/6 353/13/6
f 349/16/6 350/16/6 354/16/6
f 353/13/6 349/13/6 354/13/6
f 350/16/6 351/16/6 354/16/6
f 351/13/6 352/13/6 355/13/6
f 354/16/6 351/16/6 355/16/6
f 355/13/6 352/13/6 356/13/6
f 354/13/6 355/13/6 357/13/6
f 357/13/6 355/13/6 358/13/6
